<svg width="22" height="24" fill="none" xmlns="http://www.w3.org/2000/svg"><g clip-path="url(#a)"><path d="M11 6.6A5.5 5.5 0 0 0 5.4 12c0 3 2.5 5.4 5.6 5.4 3.1 0 5.6-2.4 5.6-5.4 0-3-2.5-5.4-5.6-5.4Zm0 8.9c-2 0-3.7-1.6-3.7-3.5 0-2 1.7-3.5 3.7-3.5s3.7 1.6 3.7 3.5c0 2-1.7 3.5-3.7 3.5Zm7.2-9.1c0 .7-.6 1.2-1.3 1.2-.8 0-1.3-.5-1.3-1.2S16.2 5 16.9 5c.7 0 1.3.6 1.3 1.3Zm3.7 1.3a6 6 0 0 0-1.7-4.4 6.7 6.7 0 0 0-4.7-1.7h-9C4.7 1.6 3 2 1.9 3.3A6 6 0 0 0 0 7.7v8.6a6 6 0 0 0 1.8 4.4 6.7 6.7 0 0 0 4.6 1.7h9c1.8 0 3.4-.4 4.7-1.7a6.1 6.1 0 0 0 1.7-4.4V7.7Zm-2.3 10.5c-.4 1-1.1 1.6-2.1 2-1.5.5-4.9.4-6.5.4-1.6 0-5 .1-6.5-.4-1-.4-1.7-1-2-2-.6-1.4-.5-4.7-.5-6.2s-.1-4.8.4-6.2c.4-1 1.2-1.6 2.1-2 1.5-.5 4.9-.4 6.5-.4 1.6 0 5-.1 6.5.4 1 .4 1.7 1 2 2 .7 1.4.5 4.7.5 6.2s.2 4.8-.4 6.2Z" fill="#fff"/></g><defs><clipPath id="a"><path fill="#fff" d="M0 0h22v24H0z"/></clipPath></defs></svg>